STARTFONT 2.3
FONT -FontForge-Tangerine-Book-R-Normal--24-240-72-72-P-89-ISO10646-1
SIZE 24 72 72  2
FONTBOUNDINGBOX 40 26 -8 -7
COMMENT "Generated by fontforge, http://fontforge.sourceforge.net"
COMMENT "Copyright (c) 2010 by Toshi Omagari. All rights reserved."
STARTPROPERTIES 40
FOUNDRY "FontForge"
FAMILY_NAME "Tangerine"
WEIGHT_NAME "Book"
SLANT "R"
SETWIDTH_NAME "Normal"
ADD_STYLE_NAME ""
PIXEL_SIZE 24
POINT_SIZE 240
RESOLUTION_X 72
RESOLUTION_Y 72
SPACING "P"
AVERAGE_WIDTH 89
CHARSET_REGISTRY "ISO10646"
CHARSET_ENCODING "1"
FONTNAME_REGISTRY ""
CHARSET_COLLECTIONS "ISO10646-1"
BITS_PER_PIXEL 2
FONT_NAME "Tangerine-Regular"
FACE_NAME "Tangerine Regular"
COPYRIGHT "Copyright (c) 2010 by Toshi Omagari. All rights reserved."
FONT_VERSION "1.3"
FONT_ASCENT 18
FONT_DESCENT 6
UNDERLINE_POSITION -2
UNDERLINE_THICKNESS 2
X_HEIGHT 5
CAP_HEIGHT 14
RAW_ASCENT 750
RAW_DESCENT 250
NORM_SPACE 4
RELATIVE_WEIGHT 40
RELATIVE_SETWIDTH 50
SUPERSCRIPT_X 0
SUPERSCRIPT_Y 11
SUPERSCRIPT_SIZE 15
SUBSCRIPT_X 0
SUBSCRIPT_Y 3
SUBSCRIPT_SIZE 15
AVG_LOWERCASE_WIDTH 58
AVG_UPPERCASE_WIDTH 170
ENDPROPERTIES
CHARS 233
STARTCHAR space
ENCODING 32
SWIDTH 150 0
DWIDTH 4 0
BBX 1 1 0 0
BITMAP
00
ENDCHAR
STARTCHAR exclam
ENCODING 33
SWIDTH 189 0
DWIDTH 5 0
BBX 7 14 1 0
BITMAP
0014
0030
0060
0090
0080
0140
0200
0500
0400
0400
0000
0000
6000
9000
ENDCHAR
STARTCHAR quotedbl
ENCODING 34
SWIDTH 214 0
DWIDTH 5 0
BBX 5 4 1 6
BITMAP
0880
2540
5200
4400
ENDCHAR
STARTCHAR numbersign
ENCODING 35
SWIDTH 289 0
DWIDTH 7 0
BBX 7 8 0 0
BITMAP
0144
0210
1BFC
0850
0440
6F90
2100
1100
ENDCHAR
STARTCHAR dollar
ENCODING 36
SWIDTH 269 0
DWIDTH 6 0
BBX 6 12 0 -2
BITMAP
0010
0010
02A0
0550
0A40
0300
0180
1480
8480
6E40
1000
1000
ENDCHAR
STARTCHAR percent
ENCODING 37
SWIDTH 388 0
DWIDTH 9 0
BBX 9 11 0 -2
BITMAP
000040
0B0200
264400
511400
501240
109580
012080
052140
042900
100000
100000
ENDCHAR
STARTCHAR ampersand
ENCODING 38
SWIDTH 507 0
DWIDTH 12 0
BBX 12 12 0 0
BITMAP
007800
008800
014800
014400
016000
018000
09801A
208040
606100
602500
701D00
1A92E8
ENDCHAR
STARTCHAR quotesingle
ENCODING 39
SWIDTH 120 0
DWIDTH 3 0
BBX 3 3 1 7
BITMAP
18
20
50
ENDCHAR
STARTCHAR parenleft
ENCODING 40
SWIDTH 250 0
DWIDTH 6 0
BBX 6 18 2 -3
BITMAP
0050
0080
0200
0500
0800
1800
2400
3000
6000
5000
9000
9000
8000
8000
8000
4000
5000
1000
ENDCHAR
STARTCHAR parenright
ENCODING 41
SWIDTH 276 0
DWIDTH 7 0
BBX 6 17 1 -2
BITMAP
0040
0080
0040
0050
0050
0090
0090
00C0
00C0
0180
0240
0300
0600
0800
1800
2000
4000
ENDCHAR
STARTCHAR asterisk
ENCODING 42
SWIDTH 188 0
DWIDTH 5 0
BBX 4 5 1 5
BITMAP
04
5A
64
58
44
ENDCHAR
STARTCHAR plus
ENCODING 43
SWIDTH 301 0
DWIDTH 7 0
BBX 6 6 1 1
BITMAP
0100
0200
0500
BFD0
0800
0800
ENDCHAR
STARTCHAR comma
ENCODING 44
SWIDTH 112 0
DWIDTH 3 0
BBX 2 4 0 -2
BITMAP
20
20
10
40
ENDCHAR
STARTCHAR hyphen
ENCODING 45
SWIDTH 245 0
DWIDTH 6 0
BBX 5 1 1 3
BITMAP
AF40
ENDCHAR
STARTCHAR period
ENCODING 46
SWIDTH 112 0
DWIDTH 3 0
BBX 2 2 0 0
BITMAP
10
60
ENDCHAR
STARTCHAR slash
ENCODING 47
SWIDTH 210 0
DWIDTH 5 0
BBX 10 16 -1 -1
BITMAP
000020
000050
000040
000100
000100
000800
001400
001000
004000
004000
010000
010000
080000
140000
200000
500000
ENDCHAR
STARTCHAR zero
ENCODING 48
SWIDTH 349 0
DWIDTH 8 0
BBX 7 8 1 0
BITMAP
02F4
1968
200C
5008
8008
9010
6050
2E40
ENDCHAR
STARTCHAR one
ENCODING 49
SWIDTH 189 0
DWIDTH 5 0
BBX 5 8 1 0
BITMAP
0640
7A00
0800
1800
2400
2000
9000
8000
ENDCHAR
STARTCHAR two
ENCODING 50
SWIDTH 277 0
DWIDTH 7 0
BBX 7 8 0 0
BITMAP
02A0
0424
0424
0020
0090
0100
1400
6B90
ENDCHAR
STARTCHAR three
ENCODING 51
SWIDTH 253 0
DWIDTH 6 0
BBX 8 12 -2 -4
BITMAP
005A
0043
0003
0009
00A4
0118
0009
0009
0009
0018
5060
2E40
ENDCHAR
STARTCHAR four
ENCODING 52
SWIDTH 363 0
DWIDTH 9 0
BBX 10 12 1 0
BITMAP
000060
000280
000600
005500
014800
041800
102000
646100
5AF900
008000
018000
024000
ENDCHAR
STARTCHAR five
ENCODING 53
SWIDTH 250 0
DWIDTH 6 0
BBX 9 13 -2 -4
BITMAP
000040
003F80
004000
004000
008000
00E000
007800
001C00
000C00
000800
002400
509000
7E4000
ENDCHAR
STARTCHAR six
ENCODING 54
SWIDTH 296 0
DWIDTH 7 0
BBX 10 12 1 0
BITMAP
001B80
009050
020000
050000
080000
269000
347000
503000
902000
805000
904000
790000
ENDCHAR
STARTCHAR seven
ENCODING 55
SWIDTH 326 0
DWIDTH 8 0
BBX 9 12 0 -4
BITMAP
07FE80
080240
100200
000800
001400
005000
008000
020000
090000
240000
600000
800000
ENDCHAR
STARTCHAR eight
ENCODING 56
SWIDTH 305 0
DWIDTH 7 0
BBX 8 12 1 0
BITMAP
0054
015D
0505
0605
0354
02D0
14A0
5034
8024
C020
D050
6A40
ENDCHAR
STARTCHAR nine
ENCODING 57
SWIDTH 304 0
DWIDTH 7 0
BBX 8 12 -1 -4
BITMAP
007D
019B
0203
0903
0803
0C06
0A1D
07E8
0014
0010
4180
B900
ENDCHAR
STARTCHAR colon
ENCODING 58
SWIDTH 156 0
DWIDTH 4 0
BBX 4 6 0 0
BITMAP
09
08
00
00
20
50
ENDCHAR
STARTCHAR semicolon
ENCODING 59
SWIDTH 156 0
DWIDTH 4 0
BBX 4 8 0 -2
BITMAP
09
08
00
00
10
30
10
40
ENDCHAR
STARTCHAR less
ENCODING 60
SWIDTH 301 0
DWIDTH 7 0
BBX 6 5 1 1
BITMAP
0010
0640
6400
1400
0140
ENDCHAR
STARTCHAR equal
ENCODING 61
SWIDTH 301 0
DWIDTH 7 0
BBX 6 4 1 1
BITMAP
7FE0
0000
0000
FFC0
ENDCHAR
STARTCHAR greater
ENCODING 62
SWIDTH 301 0
DWIDTH 7 0
BBX 7 6 0 1
BITMAP
0400
0640
00A0
0064
0A40
6400
ENDCHAR
STARTCHAR question
ENCODING 63
SWIDTH 285 0
DWIDTH 7 0
BBX 9 13 1 0
BITMAP
001400
019B00
010340
000200
000200
000800
005000
010000
080000
180000
000000
600000
900000
ENDCHAR
STARTCHAR at
ENCODING 64
SWIDTH 492 0
DWIDTH 12 0
BBX 10 12 1 -3
BITMAP
01BE00
0A41C0
140060
201920
410810
822810
866440
835900
900000
300040
1D0500
019400
ENDCHAR
STARTCHAR A
ENCODING 65
SWIDTH 996 0
DWIDTH 24 0
BBX 23 15 1 0
BITMAP
0000006AAA40
0000014001B8
000000000064
000004000160
000004000490
000000001080
000000004140
000000010200
000002FFFF00
000000140200
400000500600
800001000600
900014000600
740190000754
1FE9000002D0
ENDCHAR
STARTCHAR B
ENCODING 66
SWIDTH 638 0
DWIDTH 15 0
BBX 15 16 1 0
BITMAP
00000100
00056540
00105070
00408028
01014018
00020024
00020060
00051B40
00080180
000800A0
00100070
00100030
40400030
B9000060
1A400180
01A55500
ENDCHAR
STARTCHAR C
ENCODING 67
SWIDTH 557 0
DWIDTH 13 0
BBX 14 15 1 0
BITMAP
00055690
00500030
01400010
05000000
08000000
24000000
30000000
30000000
70000000
70000000
70000000
34000100
1C000100
06000900
01A56400
ENDCHAR
STARTCHAR D
ENCODING 68
SWIDTH 799 0
DWIDTH 19 0
BBX 18 15 1 0
BITMAP
001AA91400
004006D000
0100022800
0100090600
0000080240
00001400C0
00002000A0
0000600070
0000900030
0000800030
0001400020
0002000020
1548000080
417D400140
9541AA9400
ENDCHAR
STARTCHAR E
ENCODING 69
SWIDTH 494 0
DWIDTH 12 0
BBX 12 15 1 0
BITMAP
000559
002002
006001
006000
003800
002E00
014000
080000
200000
600000
600000
A00004
700010
280060
065540
ENDCHAR
STARTCHAR F
ENCODING 70
SWIDTH 626 0
DWIDTH 15 0
BBX 19 15 1 0
BITMAP
00006ABFFC
0005000410
0004002000
0010006000
0000009000
000000C000
0000018000
0002FFF800
0000020000
0000020000
5000080000
8000140000
8000200000
6001400000
1EA4000000
ENDCHAR
STARTCHAR G
ENCODING 71
SWIDTH 571 0
DWIDTH 14 0
BBX 18 19 -1 -4
BITMAP
0000006F80
00000640A0
0000140020
0000900040
0001400000
0002000000
0005000000
0009000000
000C000000
000C001400
000C003000
000900A000
0002549000
5000008000
9000020000
D000050000
9000040000
7400500000
1A55000000
ENDCHAR
STARTCHAR H
ENCODING 72
SWIDTH 865 0
DWIDTH 21 0
BBX 27 16 1 0
BITMAP
000000000001A4
00016AA0000504
00040050001000
00100140004000
00100300010000
00000600010000
00000D00080000
00001C00080000
006FF800240000
06502AA9700000
14003001B80000
50009000900000
80008000800000
80020000C00000
A0180000C40000
2F900000A00000
ENDCHAR
STARTCHAR I
ENCODING 73
SWIDTH 554 0
DWIDTH 13 0
BBX 17 15 1 0
BITMAP
0000001740
0000010800
0000042400
0000102000
0000409000
0000408000
0001008000
0001014000
0001020000
0000460000
1000190000
5000140000
9000500000
7406400000
1FE4000000
ENDCHAR
STARTCHAR J
ENCODING 74
SWIDTH 634 0
DWIDTH 15 0
BBX 20 19 0 -4
BITMAP
000000005D
0000000520
0000001090
0000004080
0000010140
0000010200
0000040200
0000040600
0000040800
0000010800
0050001400
0500002000
1000009000
1000018000
8000020000
8000080000
C000600000
A406400000
2FE4000000
ENDCHAR
STARTCHAR K
ENCODING 75
SWIDTH 936 0
DWIDTH 22 0
BBX 23 15 1 0
BITMAP
00006AA401B8
000100140508
000400501000
001000814000
001000810000
001001440000
001002600000
000003200000
000002240000
100005180000
1000080C0000
800014060000
900010034000
A0014001D040
2A9400006A40
ENDCHAR
STARTCHAR L
ENCODING 76
SWIDTH 657 0
DWIDTH 16 0
BBX 17 15 1 0
BITMAP
0000006E00
0000014240
0000040140
0000040100
0000200000
0000200000
0000500000
0000800000
0000800000
0001400000
0002000000
0005000000
5644000400
807E405000
A546BF4000
ENDCHAR
STARTCHAR M
ENCODING 77
SWIDTH 1219 0
DWIDTH 29 0
BBX 30 15 1 0
BITMAP
000001AAA4000060
000014001A900180
0000100001800300
0000400002400900
0000400007001C00
0000000015002400
0000000008003000
0000000048006000
1000000118009000
5000000424008000
900000103100C000
900001403400C000
A00005006000C000
380060006000D100
0BE9000080007800
ENDCHAR
STARTCHAR N
ENCODING 78
SWIDTH 990 0
DWIDTH 24 0
BBX 30 15 1 0
BITMAP
0000AB80000007D0
0001007800001850
0000000900005000
0000000540008000
0000001080010000
0000001020010000
0000001014040000
0000004008040000
1000004009040000
5000010002100000
8000010002100000
8000040001500000
A000100000900000
3901800000800000
0BF9000000400000
ENDCHAR
STARTCHAR O
ENCODING 79
SWIDTH 606 0
DWIDTH 15 0
BBX 15 15 1 0
BITMAP
0006FE00
002406D0
014000B0
01000034
08000028
14000018
20000018
20000014
60000020
60000020
70000080
34000140
2C000500
0B406400
01BE4000
ENDCHAR
STARTCHAR P
ENCODING 80
SWIDTH 783 0
DWIDTH 19 0
BBX 20 16 1 0
BITMAP
0000000140
0000016950
0000141418
0000402009
0001005006
0001008003
0000008007
0000014006
000006000C
0000034064
1000056A40
4000080000
8000140000
8000100000
6001400000
1AA4000000
ENDCHAR
STARTCHAR Q
ENCODING 81
SWIDTH 563 0
DWIDTH 14 0
BBX 17 19 1 -4
BITMAP
0005590000
0040024000
010000C000
0100009000
040000A000
0800006000
1400009000
1400009000
1400008000
1800024000
0D00010000
0790040000
0000500000
1015000000
5B90000000
01A4000000
000A400000
0000B90180
00000AF900
ENDCHAR
STARTCHAR R
ENCODING 82
SWIDTH 854 0
DWIDTH 21 0
BBX 20 16 1 0
BITMAP
0000000500
0000056580
0000505060
0001008024
0004014018
0000020024
0000030020
0000060090
0000096900
0000086000
1000143000
4000203000
4000502400
8001400C00
9005000A01
2A900002E4
ENDCHAR
STARTCHAR S
ENCODING 83
SWIDTH 480 0
DWIDTH 12 0
BBX 12 15 1 0
BITMAP
000058
000406
001405
001800
000C00
000A00
000340
0001C0
0000A0
000070
500030
800020
900010
740040
1A9500
ENDCHAR
STARTCHAR T
ENCODING 84
SWIDTH 577 0
DWIDTH 14 0
BBX 19 15 1 0
BITMAP
0002FFE940
0019005AF4
0050000400
0040001000
0100005000
0100008000
0000018000
0000024000
0000020000
0000050000
1000080000
8000140000
9000500000
6001400000
2EA4000000
ENDCHAR
STARTCHAR U
ENCODING 85
SWIDTH 752 0
DWIDTH 18 0
BBX 19 15 1 0
BITMAP
006BA40008
0500200024
0400400020
1001000090
10050000C0
4008000240
4014000700
0020000A00
0060001900
0090001800
0090004C00
0090011800
0090051800
00B4641840
002F800E00
ENDCHAR
STARTCHAR V
ENCODING 86
SWIDTH 661 0
DWIDTH 16 0
BBX 17 15 1 0
BITMAP
01AD001E00
0502801280
0400C000C0
1000500080
1000200080
4000200040
0000200100
0000200100
0000200400
0000200000
0000200000
0000500000
0000900000
0000D00000
0001400000
ENDCHAR
STARTCHAR W
ENCODING 87
SWIDTH 822 0
DWIDTH 20 0
BBX 22 15 1 0
BITMAP
01BD00000280
040700040490
100280140050
100080600090
400080900080
000080900040
000080900100
000080500100
000040500400
000140601000
000140604000
000200600000
000200600000
000500600000
000800600000
ENDCHAR
STARTCHAR X
ENCODING 88
SWIDTH 813 0
DWIDTH 20 0
BBX 20 15 1 0
BITMAP
0001E000BC
0001300649
0004241404
0000245004
0000184000
0000190000
00000D0000
00000C0000
0000190000
0000160000
0000430000
1001018000
500400D004
A060007410
7E40001B80
ENDCHAR
STARTCHAR Y
ENCODING 89
SWIDTH 662 0
DWIDTH 16 0
BBX 21 18 0 -3
BITMAP
00006C000180
000149000240
000008000600
00000C000900
000018001800
000024003400
00002000A000
00006001C000
004090068000
050090160000
200090990000
50007E180000
900000200000
800000800000
900002400000
600008000000
2901A0000000
07F900000000
ENDCHAR
STARTCHAR Z
ENCODING 90
SWIDTH 625 0
DWIDTH 15 0
BBX 16 16 1 0
BITMAP
00000001
0002FFFD
00090014
00100050
00100140
00000500
00001400
00005000
00014000
00050000
00140000
00400000
01000010
04000040
2F940640
506FF800
ENDCHAR
STARTCHAR bracketleft
ENCODING 91
SWIDTH 318 0
DWIDTH 8 0
BBX 8 17 2 -2
BITMAP
00D5
0180
0240
0240
0300
0600
0900
0900
0C00
1800
2400
2400
3000
6000
A000
9000
E500
ENDCHAR
STARTCHAR backslash
ENCODING 92
SWIDTH 212 0
DWIDTH 5 0
BBX 4 16 0 -1
BITMAP
50
10
10
10
10
14
04
04
04
04
04
01
01
02
01
01
ENDCHAR
STARTCHAR bracketright
ENCODING 93
SWIDTH 339 0
DWIDTH 8 0
BBX 9 17 0 -2
BITMAP
001680
000240
000300
000300
000600
000900
000800
000C00
001800
002400
002000
003000
006000
009000
008000
00C000
568000
ENDCHAR
STARTCHAR asciicircum
ENCODING 94
SWIDTH 272 0
DWIDTH 7 0
BBX 5 5 1 4
BITMAP
0200
0B00
1540
2080
4080
ENDCHAR
STARTCHAR underscore
ENCODING 95
SWIDTH 356 0
DWIDTH 9 0
BBX 8 1 0 -1
BITMAP
AA95
ENDCHAR
STARTCHAR grave
ENCODING 96
SWIDTH 155 0
DWIDTH 4 0
BBX 1 2 1 8
BITMAP
40
80
ENDCHAR
STARTCHAR a
ENCODING 97
SWIDTH 294 0
DWIDTH 7 0
BBX 7 6 0 0
BITMAP
02F8
0920
2020
2090
6180
38A0
ENDCHAR
STARTCHAR b
ENCODING 98
SWIDTH 247 0
DWIDTH 6 0
BBX 12 18 1 0
BITMAP
0000AD
000501
000400
001000
004000
004000
010000
050000
080000
040000
140000
200000
664000
A08000
908000
C10000
850000
E40000
ENDCHAR
STARTCHAR c
ENCODING 99
SWIDTH 203 0
DWIDTH 5 0
BBX 5 7 0 0
BITMAP
0100
0480
0000
2000
2000
6100
3900
ENDCHAR
STARTCHAR d
ENCODING 100
SWIDTH 285 0
DWIDTH 7 0
BBX 16 18 0 0
BITMAP
0000006D
00000144
00000400
00000400
00001000
00004000
00004000
00010000
00010000
00040000
00080000
00140000
05600000
14200000
20600000
20900000
61940000
38A00000
ENDCHAR
STARTCHAR e
ENCODING 101
SWIDTH 206 0
DWIDTH 5 0
BBX 5 6 0 0
BITMAP
0680
1180
2500
2000
6000
2900
ENDCHAR
STARTCHAR f
ENCODING 102
SWIDTH 156 0
DWIDTH 4 0
BBX 20 24 -7 -6
BITMAP
00000000AD
0000000105
0000000400
0000001000
0000005000
0000008000
0000014000
0000020000
0000060000
0000090000
0000080000
0000180000
0000FE8000
0000200000
0000200000
0000500000
0000800000
0001800000
0002000000
0002000000
0008000000
0014000000
4050000000
A500000000
ENDCHAR
STARTCHAR g
ENCODING 103
SWIDTH 210 0
DWIDTH 5 0
BBX 9 12 -3 -6
BITMAP
001B40
004600
008500
008800
00E800
001400
001400
100800
900900
900900
741800
1BE000
ENDCHAR
STARTCHAR h
ENCODING 104
SWIDTH 292 0
DWIDTH 7 0
BBX 14 18 0 0
BITMAP
00001A80
00005050
00010000
00050000
00040000
00100000
00100000
00800000
00400000
02000000
02000000
05000000
08680000
09240000
18200000
24500000
30900000
50600000
ENDCHAR
STARTCHAR i
ENCODING 105
SWIDTH 149 0
DWIDTH 4 0
BBX 4 9 1 0
BITMAP
01
04
00
24
60
50
80
80
D0
ENDCHAR
STARTCHAR j
ENCODING 106
SWIDTH 136 0
DWIDTH 3 0
BBX 12 15 -7 -6
BITMAP
000005
000004
000000
000020
000060
000050
000080
000080
000140
000200
000500
000400
001000
404000
A50000
ENDCHAR
STARTCHAR k
ENCODING 107
SWIDTH 259 0
DWIDTH 6 0
BBX 13 18 0 0
BITMAP
00001A80
00005080
00010000
00040000
00140000
00100000
00400000
00400000
01000000
02000000
05000000
08000000
09600000
18200000
25400000
26000000
22000000
51900000
ENDCHAR
STARTCHAR l
ENCODING 108
SWIDTH 134 0
DWIDTH 3 0
BBX 12 18 0 0
BITMAP
00002D
000195
000100
000800
001000
001000
004000
004000
020000
020000
050000
080000
180000
240000
200000
300000
600000
200000
ENDCHAR
STARTCHAR m
ENCODING 109
SWIDTH 413 0
DWIDTH 10 0
BBX 10 6 0 0
BITMAP
186190
092490
1830C0
246180
208140
508140
ENDCHAR
STARTCHAR n
ENCODING 110
SWIDTH 291 0
DWIDTH 7 0
BBX 7 6 0 0
BITMAP
0864
0924
1820
2450
2090
5060
ENDCHAR
STARTCHAR o
ENCODING 111
SWIDTH 225 0
DWIDTH 5 0
BBX 5 6 0 0
BITMAP
0780
14C0
2080
6080
6100
3D00
ENDCHAR
STARTCHAR p
ENCODING 112
SWIDTH 261 0
DWIDTH 6 0
BBX 7 13 -1 -6
BITMAP
0240
0608
010C
050C
0418
0860
1F80
2000
2000
5000
9000
8000
9000
ENDCHAR
STARTCHAR q
ENCODING 113
SWIDTH 269 0
DWIDTH 6 0
BBX 7 12 0 -6
BITMAP
0164
0424
2060
6080
6180
7540
0200
0200
0500
0900
0C00
0D00
ENDCHAR
STARTCHAR r
ENCODING 114
SWIDTH 195 0
DWIDTH 5 0
BBX 5 6 1 0
BITMAP
6780
2440
3000
5000
8000
8000
ENDCHAR
STARTCHAR s
ENCODING 115
SWIDTH 188 0
DWIDTH 5 0
BBX 5 6 0 0
BITMAP
0940
1800
0C00
0600
4200
9500
ENDCHAR
STARTCHAR t
ENCODING 116
SWIDTH 171 0
DWIDTH 4 0
BBX 4 9 1 0
BITMAP
05
08
14
7E
70
90
80
C4
A4
ENDCHAR
STARTCHAR u
ENCODING 117
SWIDTH 299 0
DWIDTH 7 0
BBX 7 6 0 0
BITMAP
0918
1820
2060
2060
6150
3464
ENDCHAR
STARTCHAR v
ENCODING 118
SWIDTH 271 0
DWIDTH 7 0
BBX 6 6 1 0
BITMAP
7050
2090
21C0
5740
AD00
E000
ENDCHAR
STARTCHAR w
ENCODING 119
SWIDTH 369 0
DWIDTH 9 0
BBX 8 6 1 0
BITMAP
9049
6142
2201
2604
6204
5290
ENDCHAR
STARTCHAR x
ENCODING 120
SWIDTH 263 0
DWIDTH 6 0
BBX 7 6 0 0
BITMAP
0874
0944
0A00
0500
5600
9190
ENDCHAR
STARTCHAR y
ENCODING 121
SWIDTH 280 0
DWIDTH 7 0
BBX 12 12 -5 -6
BITMAP
000202
000609
00090C
000818
000864
000D20
000050
000080
100140
600200
200400
1A5000
ENDCHAR
STARTCHAR z
ENCODING 122
SWIDTH 238 0
DWIDTH 6 0
BBX 6 6 0 0
BITMAP
1A90
0040
0100
0400
1040
AA40
ENDCHAR
STARTCHAR braceleft
ENCODING 123
SWIDTH 291 0
DWIDTH 7 0
BBX 7 18 2 -3
BITMAP
0054
0180
0200
0200
0200
0600
0500
0800
6000
2400
1400
2000
6000
9000
C000
C000
A000
0400
ENDCHAR
STARTCHAR bar
ENCODING 124
SWIDTH 162 0
DWIDTH 4 0
BBX 1 21 2 -6
BITMAP
40
40
40
40
40
40
40
40
40
40
40
40
40
40
40
40
40
40
40
40
40
ENDCHAR
STARTCHAR braceright
ENCODING 125
SWIDTH 285 0
DWIDTH 7 0
BBX 7 18 0 -3
BITMAP
0064
000C
0008
000C
0018
0020
0020
0060
0028
0060
0080
0180
0140
0240
0200
0200
1800
4000
ENDCHAR
STARTCHAR asciitilde
ENCODING 126
SWIDTH 383 0
DWIDTH 9 0
BBX 8 2 1 3
BITMAP
2E45
51F4
ENDCHAR
STARTCHAR space.dup1
ENCODING 160
SWIDTH 150 0
DWIDTH 4 0
BBX 1 1 0 0
BITMAP
00
ENDCHAR
STARTCHAR exclamdown
ENCODING 161
SWIDTH 189 0
DWIDTH 5 0
BBX 7 13 -2 -7
BITMAP
0024
0000
0000
0040
0040
0200
0200
0900
0800
1400
3000
6000
8000
ENDCHAR
STARTCHAR cent
ENCODING 162
SWIDTH 194 0
DWIDTH 5 0
BBX 5 12 0 -2
BITMAP
0040
0040
0680
1280
1500
5800
9800
A400
7000
1000
4000
4000
ENDCHAR
STARTCHAR sterling
ENCODING 163
SWIDTH 344 0
DWIDTH 8 0
BBX 8 8 0 0
BITMAP
001A
0052
0080
0190
0600
0200
2A00
96E8
ENDCHAR
STARTCHAR currency
ENCODING 164
SWIDTH 344 0
DWIDTH 8 0
BBX 8 8 0 0
BITMAP
0401
0400
0804
1408
1004
1414
1AA0
5014
ENDCHAR
STARTCHAR yen
ENCODING 165
SWIDTH 309 0
DWIDTH 7 0
BBX 7 8 1 0
BITMAP
6058
1400
1400
1F40
B800
1400
BF00
2000
ENDCHAR
STARTCHAR brokenbar
ENCODING 166
SWIDTH 162 0
DWIDTH 4 0
BBX 1 21 2 -6
BITMAP
40
40
40
40
40
40
40
40
00
00
00
00
00
40
40
40
40
40
40
40
40
ENDCHAR
STARTCHAR section
ENCODING 167
SWIDTH 395 0
DWIDTH 9 0
BBX 14 19 -2 -6
BITMAP
00001500
0001A5C0
00054050
000A0040
00160000
00264000
00254000
00158000
0018C000
000CC000
000C9000
00095000
00066000
00066000
10025000
20028000
70058000
38090000
0AA40000
ENDCHAR
STARTCHAR dieresis
ENCODING 168
SWIDTH 174 0
DWIDTH 4 0
BBX 4 2 0 8
BITMAP
11
55
ENDCHAR
STARTCHAR copyright
ENCODING 169
SWIDTH 331 0
DWIDTH 8 0
BBX 7 6 1 3
BITMAP
0690
2420
5594
4414
4910
1000
ENDCHAR
STARTCHAR ordfeminine
ENCODING 170
SWIDTH 226 0
DWIDTH 5 0
BBX 4 3 1 5
BITMAP
2D
54
54
ENDCHAR
STARTCHAR guillemotleft
ENCODING 171
SWIDTH 289 0
DWIDTH 7 0
BBX 7 6 0 0
BITMAP
014C
0570
1280
6340
19D0
0970
ENDCHAR
STARTCHAR logicalnot
ENCODING 172
SWIDTH 265 0
DWIDTH 6 0
BBX 6 4 0 2
BITMAP
BFE0
0050
0080
0040
ENDCHAR
STARTCHAR registered
ENCODING 174
SWIDTH 331 0
DWIDTH 8 0
BBX 7 6 1 3
BITMAP
0A90
2520
4444
4510
5550
1540
ENDCHAR
STARTCHAR degree
ENCODING 176
SWIDTH 104 0
DWIDTH 3 0
BBX 2 3 2 7
BITMAP
B0
50
50
ENDCHAR
STARTCHAR plusminus
ENCODING 177
SWIDTH 301 0
DWIDTH 7 0
BBX 7 7 0 0
BITMAP
0040
0080
0140
2FF4
0200
0100
6A80
ENDCHAR
STARTCHAR twosuperior
ENCODING 178
SWIDTH 215 0
DWIDTH 5 0
BBX 4 4 1 4
BITMAP
19
05
04
64
ENDCHAR
STARTCHAR threesuperior
ENCODING 179
SWIDTH 190 0
DWIDTH 5 0
BBX 3 4 1 4
BITMAP
18
14
08
54
ENDCHAR
STARTCHAR acute
ENCODING 180
SWIDTH 157 0
DWIDTH 4 0
BBX 2 3 1 7
BITMAP
30
60
40
ENDCHAR
STARTCHAR mu
ENCODING 181
SWIDTH 324 0
DWIDTH 8 0
BBX 9 10 -1 -4
BITMAP
008240
024200
020900
091800
095800
1B4A00
200000
200000
600000
500000
ENDCHAR
STARTCHAR paragraph
ENCODING 182
SWIDTH 392 0
DWIDTH 9 0
BBX 12 14 -2 -6
BITMAP
00006D
000B88
002F98
007F54
00BF20
00BE20
007D50
001C80
000880
001540
402200
801900
C0A400
6A4000
ENDCHAR
STARTCHAR periodcentered
ENCODING 183
SWIDTH 112 0
DWIDTH 3 0
BBX 1 1 1 3
BITMAP
80
ENDCHAR
STARTCHAR cedilla
ENCODING 184
SWIDTH 115 0
DWIDTH 3 0
BBX 1 3 1 -3
BITMAP
40
40
40
ENDCHAR
STARTCHAR onesuperior
ENCODING 185
SWIDTH 174 0
DWIDTH 4 0
BBX 3 4 1 4
BITMAP
74
10
50
80
ENDCHAR
STARTCHAR ordmasculine
ENCODING 186
SWIDTH 178 0
DWIDTH 4 0
BBX 3 4 1 4
BITMAP
28
84
50
10
ENDCHAR
STARTCHAR guillemotright
ENCODING 187
SWIDTH 276 0
DWIDTH 7 0
BBX 7 6 -1 0
BITMAP
0C90
0630
029C
0114
1440
5100
ENDCHAR
STARTCHAR onequarter
ENCODING 188
SWIDTH 435 0
DWIDTH 10 0
BBX 9 9 1 -1
BITMAP
150200
080800
141000
205040
214640
010200
047E00
200800
400000
ENDCHAR
STARTCHAR onehalf
ENCODING 189
SWIDTH 434 0
DWIDTH 10 0
BBX 9 9 1 -1
BITMAP
150200
080800
041000
205680
214480
010140
040400
206900
400000
ENDCHAR
STARTCHAR threequarters
ENCODING 190
SWIDTH 476 0
DWIDTH 11 0
BBX 10 9 1 -1
BITMAP
000080
160200
010400
161460
025180
554480
011640
080200
100000
ENDCHAR
STARTCHAR questiondown
ENCODING 191
SWIDTH 285 0
DWIDTH 7 0
BBX 8 13 -1 -7
BITMAP
0005
0000
0024
0024
0050
0140
1800
6000
8000
8000
C040
E540
1400
ENDCHAR
STARTCHAR Agrave
ENCODING 192
SWIDTH 996 0
DWIDTH 24 0
BBX 23 18 1 0
BITMAP
000000000080
000000000064
000000000000
0000006AAA40
0000014001B8
000000000064
000004000160
000004000490
000000001080
000000004140
000000010200
000002FFFF00
000000140200
400000500600
800001000600
900014000600
740190000754
1FE9000002D0
ENDCHAR
STARTCHAR Aacute
ENCODING 193
SWIDTH 996 0
DWIDTH 24 0
BBX 24 18 1 0
BITMAP
00000000000D
000000000020
000000000000
0000006AAA40
0000014001B8
000000000064
000004000160
000004000490
000000001080
000000004140
000000010200
000002FFFF00
000000140200
400000500600
800001000600
900014000600
740190000754
1FE9000002D0
ENDCHAR
STARTCHAR Acircumflex
ENCODING 194
SWIDTH 996 0
DWIDTH 24 0
BBX 24 19 1 0
BITMAP
000000000008
000000000056
000000000000
000000000000
0000006AAA40
0000014001B8
000000000064
000004000160
000004000490
000000001080
000000004140
000000010200
000002FFFF00
000000140200
400000500600
800001000600
900014000600
740190000754
1FE9000002D0
ENDCHAR
STARTCHAR Atilde
ENCODING 195
SWIDTH 996 0
DWIDTH 24 0
BBX 25 18 1 0
BITMAP
00000000007440
00000000009A40
00000000000000
0000006AAA4000
0000014001B800
00000000006400
00000400016000
00000400049000
00000000108000
00000000414000
00000001020000
000002FFFF0000
00000014020000
40000050060000
80000100060000
90001400060000
74019000075400
1FE9000002D000
ENDCHAR
STARTCHAR Adieresis
ENCODING 196
SWIDTH 996 0
DWIDTH 24 0
BBX 24 18 1 0
BITMAP
000000000022
000000000000
000000000000
0000006AAA40
0000014001B8
000000000064
000004000160
000004000490
000000001080
000000004140
000000010200
000002FFFF00
000000140200
400000500600
800001000600
900014000600
740190000754
1FE9000002D0
ENDCHAR
STARTCHAR Aring
ENCODING 197
SWIDTH 996 0
DWIDTH 24 0
BBX 24 19 1 0
BITMAP
000000000008
000000000011
000000000010
000000000000
0000006AAA40
0000014001B8
000000000064
000004000160
000004000490
000000001080
000000004140
000000010200
000002FFFF00
000000140200
400000500600
800001000600
900014000600
740190000754
1FE9000002D0
ENDCHAR
STARTCHAR AE
ENCODING 198
SWIDTH 1271 0
DWIDTH 31 0
BBX 31 15 1 0
BITMAP
0000006AAA4015A4
0000014001A88018
0000000000694004
0000040001328000
000004000461D000
000000001090B400
0000000040C40000
0000000101900000
000001FFFF800000
1000001402400000
4000005002400000
8000020002400040
9000140002800040
7401900000D00240
1FE9000000295500
ENDCHAR
STARTCHAR Ccedilla
ENCODING 199
SWIDTH 557 0
DWIDTH 13 0
BBX 14 17 1 -2
BITMAP
00055690
00500030
01400010
05000000
08000000
24000000
30000000
70000000
70000000
70000000
34000100
28000100
0D000900
02906800
00194000
00080000
00040000
ENDCHAR
STARTCHAR Egrave
ENCODING 200
SWIDTH 463 0
DWIDTH 11 0
BBX 13 18 0 0
BITMAP
00005000
00001800
00000000
00055A00
00140240
00200100
00700000
00290000
001F0000
01400000
08000000
14000000
30000000
70000000
70000400
34001400
18006000
06954000
ENDCHAR
STARTCHAR Eacute
ENCODING 201
SWIDTH 463 0
DWIDTH 11 0
BBX 13 18 0 0
BITMAP
00000800
00006000
00000000
00055A00
00140240
00200100
00700000
00290000
001F0000
01400000
08000000
14000000
30000000
70000000
70000400
34001400
18006000
06954000
ENDCHAR
STARTCHAR Ecircumflex
ENCODING 202
SWIDTH 463 0
DWIDTH 11 0
BBX 13 19 0 0
BITMAP
00002000
00015900
00000000
00000000
00055A00
00140240
00200100
00700000
00290000
001F0000
01400000
08000000
14000000
30000000
70000000
70000400
34001400
18006000
06954000
ENDCHAR
STARTCHAR Edieresis
ENCODING 203
SWIDTH 463 0
DWIDTH 11 0
BBX 13 18 0 0
BITMAP
00005800
00000000
00000000
00055A00
00140240
00200100
00700000
00290000
001F0000
01400000
08000000
14000000
30000000
70000000
70000400
34001400
18006000
06954000
ENDCHAR
STARTCHAR Igrave
ENCODING 204
SWIDTH 514 0
DWIDTH 12 0
BBX 17 19 0 0
BITMAP
0000004000
000000A000
0000000000
0000000000
0000001740
0000014800
0000042400
0000102000
0000405000
0000409000
000100C000
0001018000
0001020000
0000420000
1000190000
5000140000
9000500000
7406400000
1FE4000000
ENDCHAR
STARTCHAR Iacute
ENCODING 205
SWIDTH 514 0
DWIDTH 12 0
BBX 17 19 0 0
BITMAP
0000000400
0000002400
0000000000
0000000000
0000001740
0000014800
0000042400
0000102000
0000405000
0000409000
000100C000
0001018000
0001020000
0000420000
1000190000
5000140000
9000500000
7406400000
1FE4000000
ENDCHAR
STARTCHAR Icircumflex
ENCODING 206
SWIDTH 514 0
DWIDTH 12 0
BBX 17 19 0 0
BITMAP
0000001800
0000005600
0000000000
0000000000
0000001740
0000014800
0000042400
0000102000
0000405000
0000409000
000100C000
0001018000
0001020000
0000420000
1000190000
5000140000
9000500000
7406400000
1FE4000000
ENDCHAR
STARTCHAR Idieresis
ENCODING 207
SWIDTH 514 0
DWIDTH 12 0
BBX 17 18 0 0
BITMAP
0000002500
0000000000
0000000000
0000001740
0000014800
0000042400
0000102000
0000405000
0000409000
000100C000
0001018000
0001020000
0000420000
1000190000
5000140000
9000500000
7406400000
1FE4000000
ENDCHAR
STARTCHAR Eth
ENCODING 208
SWIDTH 800 0
DWIDTH 19 0
BBX 18 15 1 0
BITMAP
0016A91400
0040061000
0100000400
0100040100
0000040040
0000100080
0000200060
00007F8030
001FD00030
0000800030
0000400020
0001000020
0504000080
416E400140
9541AA9400
ENDCHAR
STARTCHAR Ntilde
ENCODING 209
SWIDTH 796 0
DWIDTH 19 0
BBX 30 18 -4 0
BITMAP
0000000001D10000
0000000001780000
0000000000000000
00006B90000002D0
0001006800000920
0000000A00002000
0000000580004000
0000000450004000
0000001020010000
0000001008010000
0000001008040000
1000004006040000
1000004002040000
5000010001500000
5000050000900000
7000140000900000
2D01900000500000
06F9000000100000
ENDCHAR
STARTCHAR Ograve
ENCODING 210
SWIDTH 608 0
DWIDTH 15 0
BBX 15 18 1 0
BITMAP
0000D000
00002400
00000000
0006FE00
002506D0
018000B0
01000034
08000028
14000018
20000018
20000014
20000020
60000020
70000050
34000140
2D000600
0B506400
01BE4000
ENDCHAR
STARTCHAR Oacute
ENCODING 211
SWIDTH 608 0
DWIDTH 15 0
BBX 15 18 1 0
BITMAP
00001800
00005000
00000000
0006FE00
002506D0
018000B0
01000034
08000028
14000018
20000018
20000014
20000020
60000020
70000050
34000140
2D000600
0B506400
01BE4000
ENDCHAR
STARTCHAR Ocircumflex
ENCODING 212
SWIDTH 608 0
DWIDTH 15 0
BBX 15 19 1 0
BITMAP
00001400
00004900
00000000
00000000
0006FE00
002506D0
018000B0
01000034
08000028
14000018
20000018
20000014
20000020
60000020
70000050
34000140
2D000600
0B506400
01BE4000
ENDCHAR
STARTCHAR Otilde
ENCODING 213
SWIDTH 608 0
DWIDTH 15 0
BBX 15 18 1 0
BITMAP
0000A040
00016D00
00000000
0006FE00
002506D0
018000B0
01000034
08000028
14000018
20000018
20000014
20000020
60000020
70000050
34000140
2D000600
0B506400
01BE4000
ENDCHAR
STARTCHAR Odieresis
ENCODING 214
SWIDTH 608 0
DWIDTH 15 0
BBX 15 17 1 0
BITMAP
00005900
00000000
0006FE00
002506D0
018000B0
01000034
08000028
14000018
20000018
20000014
20000020
60000020
70000050
34000140
2D000600
0B506400
01BE4000
ENDCHAR
STARTCHAR multiply
ENCODING 215
SWIDTH 301 0
DWIDTH 7 0
BBX 6 5 1 1
BITMAP
1490
0940
0900
1600
5100
ENDCHAR
STARTCHAR Oslash
ENCODING 216
SWIDTH 605 0
DWIDTH 15 0
BBX 15 17 1 -1
BITMAP
00000040
0006FF80
002405A0
01800430
02000024
08000018
14004018
20010014
30000024
60040020
60100020
60000080
30000140
24000500
0F806400
15FE4000
10000000
ENDCHAR
STARTCHAR Ugrave
ENCODING 217
SWIDTH 717 0
DWIDTH 17 0
BBX 19 18 1 0
BITMAP
0000014000
0000006000
0000000000
01AB900024
0400900060
10010000C0
4005000180
4004000300
4020000600
4050000D00
4080001C00
0080002800
0180006400
0140013000
0240053000
0280146000
01D1907100
00BE002D00
ENDCHAR
STARTCHAR Uacute
ENCODING 218
SWIDTH 717 0
DWIDTH 17 0
BBX 19 18 1 0
BITMAP
0000000500
0000002400
0000000000
01AB900024
0400900060
10010000C0
4005000180
4004000300
4020000600
4050000D00
4080001C00
0080002800
0180006400
0140013000
0240053000
0280146000
01D1907100
00BE002D00
ENDCHAR
STARTCHAR Ucircumflex
ENCODING 219
SWIDTH 718 0
DWIDTH 17 0
BBX 19 18 1 0
BITMAP
0000002400
0000014900
0000000000
01AB900024
0400900060
10010000C0
4005000180
4004000300
4020000600
4050000D00
4080001C00
0080002800
0180006400
0140013000
0240053000
0280146000
01D1907100
00BE002D00
ENDCHAR
STARTCHAR Udieresis
ENCODING 220
SWIDTH 718 0
DWIDTH 17 0
BBX 19 18 1 0
BITMAP
0000008800
0000000000
0000000000
01AB900024
0400900060
10010000C0
4005000180
4004000300
4020000600
4050000D00
4080001C00
0080002800
0180006400
0140013000
0240053000
0280146000
01D1907100
00BE002D00
ENDCHAR
STARTCHAR Yacute
ENCODING 221
SWIDTH 662 0
DWIDTH 16 0
BBX 21 21 0 -3
BITMAP
000000009000
000000028000
000000050000
00006C000180
000149000240
000008000600
00000C000900
000018001800
000024003400
00002000A000
00006001C000
004090068000
050090160000
200090990000
50007E180000
900000200000
800000800000
900002400000
600008000000
2901A0000000
07F900000000
ENDCHAR
STARTCHAR Thorn
ENCODING 222
SWIDTH 745 0
DWIDTH 18 0
BBX 18 17 1 0
BITMAP
0000000040
0000000500
0000001800
0000002000
000005BE00
0000109680
000040C0E0
0000418060
0000024060
0000030060
1000060090
4000090140
4000095400
8000200000
9000500000
3401400000
1BA4000000
ENDCHAR
STARTCHAR germandbls
ENCODING 223
SWIDTH 304 0
DWIDTH 7 0
BBX 21 23 -8 -6
BITMAP
000000004240
000000000180
000000000180
000000000240
000000400A00
000000402800
00000100A000
000001074000
000001280000
000004600000
000008900000
000008800000
000014500000
000020200000
000020140000
000051240000
000083E00000
000040000000
000100000000
000100000000
000400000000
401000000000
6A4000000000
ENDCHAR
STARTCHAR agrave
ENCODING 224
SWIDTH 294 0
DWIDTH 7 0
BBX 7 10 0 0
BITMAP
0040
0050
0004
0000
02F8
0920
2020
2090
6180
38A0
ENDCHAR
STARTCHAR aacute
ENCODING 225
SWIDTH 294 0
DWIDTH 7 0
BBX 7 10 0 0
BITMAP
0018
0024
0050
0000
02F8
0920
2020
2090
6180
38A0
ENDCHAR
STARTCHAR acircumflex
ENCODING 226
SWIDTH 294 0
DWIDTH 7 0
BBX 7 10 0 0
BITMAP
0060
0158
0000
0000
02F8
0920
2020
2090
6180
38A0
ENDCHAR
STARTCHAR atilde
ENCODING 227
SWIDTH 294 0
DWIDTH 7 0
BBX 7 9 0 0
BITMAP
0184
0174
0000
02F8
0920
2020
2090
6180
38A0
ENDCHAR
STARTCHAR adieresis
ENCODING 228
SWIDTH 284 0
DWIDTH 7 0
BBX 7 10 0 0
BITMAP
0044
0154
0000
0000
02F8
0920
2020
2090
6180
38A0
ENDCHAR
STARTCHAR aring
ENCODING 229
SWIDTH 294 0
DWIDTH 7 0
BBX 7 10 0 0
BITMAP
0060
0050
0090
0000
02F8
0920
2020
2090
6180
38A0
ENDCHAR
STARTCHAR ae
ENCODING 230
SWIDTH 363 0
DWIDTH 9 0
BBX 9 7 0 0
BITMAP
000400
016640
142140
206500
209000
615000
387900
ENDCHAR
STARTCHAR ccedilla
ENCODING 231
SWIDTH 203 0
DWIDTH 5 0
BBX 5 10 0 -3
BITMAP
0100
0480
0000
1000
2000
6100
3900
0400
1400
1000
ENDCHAR
STARTCHAR egrave
ENCODING 232
SWIDTH 206 0
DWIDTH 5 0
BBX 6 10 0 0
BITMAP
0100
0140
0010
0000
0680
1180
2500
2000
6000
2900
ENDCHAR
STARTCHAR eacute
ENCODING 233
SWIDTH 206 0
DWIDTH 5 0
BBX 6 10 0 0
BITMAP
0060
0090
0140
0000
0680
1180
2500
2000
6000
2900
ENDCHAR
STARTCHAR ecircumflex
ENCODING 234
SWIDTH 206 0
DWIDTH 5 0
BBX 6 10 0 0
BITMAP
0140
0590
0000
0000
0680
1180
2500
2000
6000
2900
ENDCHAR
STARTCHAR edieresis
ENCODING 235
SWIDTH 206 0
DWIDTH 5 0
BBX 6 10 0 0
BITMAP
0110
0660
0000
0000
0680
1180
2500
2000
6000
2900
ENDCHAR
STARTCHAR igrave
ENCODING 236
SWIDTH 149 0
DWIDTH 4 0
BBX 4 10 1 0
BITMAP
10
14
01
00
24
60
50
80
80
D0
ENDCHAR
STARTCHAR iacute
ENCODING 237
SWIDTH 149 0
DWIDTH 4 0
BBX 5 10 1 0
BITMAP
0340
0600
0400
0000
2400
6000
5000
8000
8000
D000
ENDCHAR
STARTCHAR icircumflex
ENCODING 238
SWIDTH 149 0
DWIDTH 4 0
BBX 4 10 1 0
BITMAP
18
56
00
00
24
60
50
80
80
D0
ENDCHAR
STARTCHAR idieresis
ENCODING 239
SWIDTH 149 0
DWIDTH 4 0
BBX 4 10 1 0
BITMAP
11
22
00
00
24
60
50
80
80
D0
ENDCHAR
STARTCHAR eth
ENCODING 240
SWIDTH 234 0
DWIDTH 6 0
BBX 6 16 0 0
BITMAP
1000
2000
2000
1800
0940
0600
1140
0080
0080
0050
0050
1050
2040
2040
6140
2900
ENDCHAR
STARTCHAR ntilde
ENCODING 241
SWIDTH 291 0
DWIDTH 7 0
BBX 7 9 0 0
BITMAP
0184
0174
0000
0864
0924
1820
2450
2090
5060
ENDCHAR
STARTCHAR ograve
ENCODING 242
SWIDTH 225 0
DWIDTH 5 0
BBX 6 9 0 0
BITMAP
0140
0010
0000
0780
14C0
2080
6080
6100
3D00
ENDCHAR
STARTCHAR oacute
ENCODING 243
SWIDTH 225 0
DWIDTH 5 0
BBX 6 10 0 0
BITMAP
0070
0090
0140
0000
0780
14C0
2080
6080
6100
3D00
ENDCHAR
STARTCHAR ocircumflex
ENCODING 244
SWIDTH 225 0
DWIDTH 5 0
BBX 6 10 0 0
BITMAP
0080
0160
0000
0000
0780
14C0
2080
6080
6100
3D00
ENDCHAR
STARTCHAR otilde
ENCODING 245
SWIDTH 225 0
DWIDTH 5 0
BBX 7 9 0 0
BITMAP
0344
05E0
0000
0780
14C0
2080
6080
6100
3D00
ENDCHAR
STARTCHAR odieresis
ENCODING 246
SWIDTH 225 0
DWIDTH 5 0
BBX 6 10 0 0
BITMAP
0110
0660
0000
0000
0780
14C0
2080
6080
6100
3D00
ENDCHAR
STARTCHAR divide
ENCODING 247
SWIDTH 301 0
DWIDTH 7 0
BBX 6 5 1 1
BITMAP
0200
0000
6A90
0000
0800
ENDCHAR
STARTCHAR oslash
ENCODING 248
SWIDTH 225 0
DWIDTH 5 0
BBX 6 8 0 -1
BITMAP
0010
06C0
11C0
2180
6480
6100
7900
4000
ENDCHAR
STARTCHAR ugrave
ENCODING 249
SWIDTH 299 0
DWIDTH 7 0
BBX 7 10 0 0
BITMAP
0040
0050
0004
0000
0918
1820
2060
2060
6150
3464
ENDCHAR
STARTCHAR uacute
ENCODING 250
SWIDTH 299 0
DWIDTH 7 0
BBX 7 10 0 0
BITMAP
000C
0024
0010
0000
0918
1820
2060
2060
6150
3464
ENDCHAR
STARTCHAR ucircumflex
ENCODING 251
SWIDTH 299 0
DWIDTH 7 0
BBX 7 10 0 0
BITMAP
0060
0158
0000
0000
0918
1820
2060
2060
6150
3464
ENDCHAR
STARTCHAR udieresis
ENCODING 252
SWIDTH 299 0
DWIDTH 7 0
BBX 7 10 0 0
BITMAP
0044
0198
0000
0000
0918
1820
2060
2060
6150
3464
ENDCHAR
STARTCHAR yacute
ENCODING 253
SWIDTH 280 0
DWIDTH 7 0
BBX 13 16 -5 -6
BITMAP
00000340
00000600
00000400
00000000
00020200
00060900
00090C00
00081800
00086400
000D2000
00005000
00008000
10014000
60020000
20040000
1A500000
ENDCHAR
STARTCHAR thorn
ENCODING 254
SWIDTH 261 0
DWIDTH 6 0
BBX 7 18 -1 -6
BITMAP
0014
0064
0020
0050
0080
0080
0208
020C
050C
0418
0860
1F80
2000
2000
5000
9000
8000
9000
ENDCHAR
STARTCHAR ydieresis
ENCODING 255
SWIDTH 280 0
DWIDTH 7 0
BBX 12 16 -5 -6
BITMAP
000011
000066
000000
000000
000202
000609
00090C
000818
000864
000D20
000050
000080
100140
600200
200400
1A5000
ENDCHAR
STARTCHAR dotlessi
ENCODING 305
SWIDTH 149 0
DWIDTH 4 0
BBX 3 6 1 0
BITMAP
24
60
50
80
80
D0
ENDCHAR
STARTCHAR Lslash
ENCODING 321
SWIDTH 657 0
DWIDTH 16 0
BBX 17 15 1 0
BITMAP
0000006E00
0000014240
0000040140
0000040100
0000100000
0000150000
0000640000
0005C00000
0000800000
0001400000
0002000000
0005000000
1044000400
807E405000
BE46BF4000
ENDCHAR
STARTCHAR lslash
ENCODING 322
SWIDTH 134 0
DWIDTH 3 0
BBX 12 18 0 0
BITMAP
00002D
000181
000100
000400
001000
001000
004000
019000
060000
020000
090000
080000
180000
240000
200000
300000
600000
200000
ENDCHAR
STARTCHAR OE
ENCODING 338
SWIDTH 827 0
DWIDTH 20 0
BBX 20 15 1 0
BITMAP
0006FE0559
002406E002
014000A001
0100006000
0800003900
1400002E00
2000014000
2000080000
6000200000
6000600000
7000600000
3400600004
2C00700010
0B40780060
01FE465540
ENDCHAR
STARTCHAR oe
ENCODING 339
SWIDTH 345 0
DWIDTH 8 0
BBX 8 6 0 0
BITMAP
0687
1092
1094
60C0
61C1
29A8
ENDCHAR
STARTCHAR Scaron
ENCODING 352
SWIDTH 480 0
DWIDTH 12 0
BBX 12 18 1 0
BITMAP
000085
000064
000000
000058
000406
001405
001800
000C00
000A00
000340
0001C0
0000A0
000070
500030
800020
900010
740040
1A9500
ENDCHAR
STARTCHAR scaron
ENCODING 353
SWIDTH 188 0
DWIDTH 5 0
BBX 5 10 0 0
BITMAP
0400
0040
0000
0000
0940
1800
0C00
0600
4200
9500
ENDCHAR
STARTCHAR Ydieresis
ENCODING 376
SWIDTH 662 0
DWIDTH 16 0
BBX 21 21 0 -3
BITMAP
000000088000
000000000000
000000000000
00006C000180
000149000240
000008000600
00000C000900
000018001800
000024003400
00002000A000
00006001C000
004090068000
050090160000
200090990000
50007E180000
900000200000
800000800000
900002400000
600008000000
2901A0000000
07F900000000
ENDCHAR
STARTCHAR Zcaron
ENCODING 381
SWIDTH 625 0
DWIDTH 15 0
BBX 16 18 1 0
BITMAP
00000810
00000240
00000001
0002FFFD
00090014
00100050
00100140
00000500
00001400
00005000
00014000
00050000
00140000
00400000
01000010
04000040
2F940640
506FF800
ENDCHAR
STARTCHAR zcaron
ENCODING 382
SWIDTH 248 0
DWIDTH 6 0
BBX 6 10 0 0
BITMAP
0200
0000
0000
0000
1A90
0040
0100
0400
1040
AA40
ENDCHAR
STARTCHAR florin
ENCODING 402
SWIDTH 214 0
DWIDTH 5 0
BBX 8 10 -2 -2
BITMAP
001B
0021
0080
0080
03F8
0140
0200
0200
0400
9400
ENDCHAR
STARTCHAR circumflex
ENCODING 710
SWIDTH 196 0
DWIDTH 5 0
BBX 3 2 1 8
BITMAP
20
58
ENDCHAR
STARTCHAR caron
ENCODING 711
SWIDTH 196 0
DWIDTH 5 0
BBX 3 2 0 8
BITMAP
50
04
ENDCHAR
STARTCHAR breve
ENCODING 728
SWIDTH 198 0
DWIDTH 5 0
BBX 4 2 0 8
BITMAP
40
05
ENDCHAR
STARTCHAR dotaccent
ENCODING 729
SWIDTH 89 0
DWIDTH 2 0
BBX 2 1 0 8
BITMAP
50
ENDCHAR
STARTCHAR ring
ENCODING 730
SWIDTH 117 0
DWIDTH 3 0
BBX 3 3 0 7
BITMAP
34
54
60
ENDCHAR
STARTCHAR ogonek
ENCODING 731
SWIDTH 124 0
DWIDTH 3 0
BBX 2 3 0 -3
BITMAP
10
40
50
ENDCHAR
STARTCHAR tilde
ENCODING 732
SWIDTH 222 0
DWIDTH 5 0
BBX 5 2 0 7
BITMAP
2840
5B00
ENDCHAR
STARTCHAR hungarumlaut
ENCODING 733
SWIDTH 253 0
DWIDTH 6 0
BBX 6 3 0 7
BITMAP
0C90
2980
5200
ENDCHAR
STARTCHAR mu.dup2
ENCODING 956
SWIDTH 324 0
DWIDTH 8 0
BBX 9 10 -1 -4
BITMAP
008240
024200
020900
091800
095800
1B4A00
200000
200000
600000
500000
ENDCHAR
STARTCHAR endash
ENCODING 8211
SWIDTH 500 0
DWIDTH 12 0
BBX 12 1 0 3
BITMAP
7FFFFD
ENDCHAR
STARTCHAR emdash
ENCODING 8212
SWIDTH 1000 0
DWIDTH 24 0
BBX 24 1 0 3
BITMAP
7FFFFFFFFFFD
ENDCHAR
STARTCHAR quoteleft
ENCODING 8216
SWIDTH 87 0
DWIDTH 2 0
BBX 2 4 1 6
BITMAP
10
50
90
40
ENDCHAR
STARTCHAR quoteright
ENCODING 8217
SWIDTH 87 0
DWIDTH 2 0
BBX 3 4 1 6
BITMAP
24
20
10
40
ENDCHAR
STARTCHAR quotesinglbase
ENCODING 8218
SWIDTH 112 0
DWIDTH 3 0
BBX 2 4 0 -2
BITMAP
20
30
10
40
ENDCHAR
STARTCHAR quotedblleft
ENCODING 8220
SWIDTH 167 0
DWIDTH 4 0
BBX 4 4 1 6
BITMAP
11
15
98
98
ENDCHAR
STARTCHAR quotedblright
ENCODING 8221
SWIDTH 167 0
DWIDTH 4 0
BBX 4 4 1 6
BITMAP
26
22
21
44
ENDCHAR
STARTCHAR quotedblbase
ENCODING 8222
SWIDTH 192 0
DWIDTH 5 0
BBX 4 4 0 -2
BITMAP
22
22
11
44
ENDCHAR
STARTCHAR dagger
ENCODING 8224
SWIDTH 185 0
DWIDTH 4 0
BBX 6 15 0 -2
BITMAP
0040
0080
0140
0200
0200
7FA0
0400
0800
0400
1400
1000
1000
1000
1000
4000
ENDCHAR
STARTCHAR daggerdbl
ENCODING 8225
SWIDTH 185 0
DWIDTH 4 0
BBX 7 15 -1 -2
BITMAP
0010
0020
0050
0080
0080
0BF8
0100
0200
0100
0400
7F90
0400
0400
1400
1000
ENDCHAR
STARTCHAR bullet
ENCODING 8226
SWIDTH 207 0
DWIDTH 5 0
BBX 3 3 1 2
BITMAP
78
BC
78
ENDCHAR
STARTCHAR ellipsis
ENCODING 8230
SWIDTH 376 0
DWIDTH 9 0
BBX 8 1 1 0
BITMAP
8209
ENDCHAR
STARTCHAR perthousand
ENCODING 8240
SWIDTH 571 0
DWIDTH 14 0
BBX 13 11 0 -2
BITMAP
00004000
0B020000
26440000
51140000
50124140
10958580
01209480
05216440
04291A00
10000000
10000000
ENDCHAR
STARTCHAR guilsinglleft
ENCODING 8249
SWIDTH 189 0
DWIDTH 5 0
BBX 5 6 0 0
BITMAP
0140
0500
1000
6000
1800
0900
ENDCHAR
STARTCHAR guilsinglright
ENCODING 8250
SWIDTH 176 0
DWIDTH 4 0
BBX 5 6 -1 0
BITMAP
0C00
0600
0280
0100
1400
5000
ENDCHAR
STARTCHAR fraction
ENCODING 8260
SWIDTH 220 0
DWIDTH 5 0
BBX 9 9 -1 -1
BITMAP
000140
000500
001400
001000
004000
020000
040000
140000
500000
ENDCHAR
STARTCHAR Euro
ENCODING 8364
SWIDTH 360 0
DWIDTH 9 0
BBX 8 8 0 0
BITMAP
01B8
0605
0801
7FD0
2400
7400
2400
0810
ENDCHAR
STARTCHAR trademark
ENCODING 8482
SWIDTH 389 0
DWIDTH 9 0
BBX 7 4 2 4
BITMAP
5444
4154
8494
0004
ENDCHAR
STARTCHAR minus
ENCODING 8722
SWIDTH 301 0
DWIDTH 7 0
BBX 6 1 1 3
BITMAP
BFD0
ENDCHAR
STARTCHAR fi
ENCODING 64257
SWIDTH 297 0
DWIDTH 7 0
BBX 20 24 -7 -6
BITMAP
00000000AD
0000000105
0000000400
0000001000
0000005000
0000008000
0000014000
0000020000
0000060100
0000090400
0000081000
0000180000
0000BFE000
0000205000
0000208000
0000518000
0000814000
0001828000
0002000000
0002000000
0008000000
0014000000
4050000000
A500000000
ENDCHAR
STARTCHAR fl
ENCODING 64258
SWIDTH 290 0
DWIDTH 7 0
BBX 22 24 -7 -6
BITMAP
0000000051B0
00000002A910
000000040400
000000101000
000000504000
000000800000
000001410000
000002040000
000006040000
000009140000
000008100000
000018100000
0000BFD00000
000020400000
000020800000
000051800000
000081500000
000181D00000
000200000000
000500000000
000800000000
001400000000
405000000000
A50000000000
ENDCHAR
STARTCHAR .notdef
ENCODING -1
SWIDTH 150 0
DWIDTH 4 0
BBX 1 1 0 0
BITMAP
00
ENDCHAR
STARTCHAR .null
ENCODING -1
SWIDTH 0 0
DWIDTH 0 0
BBX 1 1 0 0
BITMAP
00
ENDCHAR
STARTCHAR nonmarkingreturn
ENCODING -1
SWIDTH 150 0
DWIDTH 4 0
BBX 1 1 0 0
BITMAP
00
ENDCHAR
ENDFONT
